<mxfile host="www.draw.io" modified="2019-12-10T06:59:59.987Z" agent="Mozilla/5.0 (Windows NT 10.0; WOW64) AppleWebKit/537.36 (KHTML, like Gecko) Chrome/78.0.3904.108 Safari/537.36" etag="KevCRZiUpn4jSbYj1oaY" version="12.3.9" type="github" pages="1">
  <diagram id="fwvWftteLI5VUCwKS46q" name="第 1 页">
    <mxGraphModel dx="1038" dy="588" grid="1" gridSize="10" guides="1" tooltips="1" connect="1" arrows="1" fold="1" page="1" pageScale="1" pageWidth="827" pageHeight="1169" math="0" shadow="0">
      <root>
        <mxCell id="0"/>
        <mxCell id="1" parent="0"/>
        <mxCell id="DDQgWCTNmmb60GcAUb6x-1" value="ZK1" style="rounded=1;whiteSpace=wrap;html=1;" vertex="1" parent="1">
          <mxGeometry x="100" y="140" width="100" height="50" as="geometry"/>
        </mxCell>
        <mxCell id="DDQgWCTNmmb60GcAUb6x-2" value="ZK2" style="rounded=1;whiteSpace=wrap;html=1;" vertex="1" parent="1">
          <mxGeometry x="240" y="140" width="100" height="50" as="geometry"/>
        </mxCell>
        <mxCell id="DDQgWCTNmmb60GcAUb6x-3" value="ZK3" style="rounded=1;whiteSpace=wrap;html=1;" vertex="1" parent="1">
          <mxGeometry x="370" y="140" width="100" height="50" as="geometry"/>
        </mxCell>
        <mxCell id="DDQgWCTNmmb60GcAUb6x-4" value="ZK4" style="rounded=1;whiteSpace=wrap;html=1;" vertex="1" parent="1">
          <mxGeometry x="510" y="140" width="100" height="50" as="geometry"/>
        </mxCell>
        <mxCell id="DDQgWCTNmmb60GcAUb6x-5" value="ZK5" style="rounded=1;whiteSpace=wrap;html=1;" vertex="1" parent="1">
          <mxGeometry x="650" y="140" width="100" height="50" as="geometry"/>
        </mxCell>
        <mxCell id="DDQgWCTNmmb60GcAUb6x-6" value="Leader&lt;br&gt;主节点" style="text;html=1;strokeColor=none;fillColor=none;align=center;verticalAlign=middle;whiteSpace=wrap;rounded=0;" vertex="1" parent="1">
          <mxGeometry x="265" y="210" width="50" height="30" as="geometry"/>
        </mxCell>
      </root>
    </mxGraphModel>
  </diagram>
</mxfile>
